<?xml version="1.0" encoding="UTF-8"?>
<!DOCTYPE svg PUBLIC "-//W3C//DTD SVG 1.1//EN" "http://www.w3.org/Graphics/SVG/1.1/DTD/svg11.dtd">
<svg version="1.1" xmlns="http://www.w3.org/2000/svg" xmlns:xlink="http://www.w3.org/1999/xlink" x="0" y="0" width="780" height="440" viewBox="0, 0, 780, 440">
  <g id="Layer_1">
    <g>
      <path d="M137.386,50.272 C137.386,50.272 204.722,84.272 230.058,84.272 L295.874,84.272 L404.058,107.656 C404.058,107.656 560.434,251.656 573.906,272.296 C587.386,292.936 588.058,316.272 580.058,331.6 C572.058,346.936 556.058,349.6 538.058,344.272 C538.058,344.272 540.722,368.936 526.722,380.272 C512.722,391.6 487.386,382.936 487.386,382.936 C487.386,382.936 489.386,407.6 462.722,416.272 C439.442,423.832 432.746,410.424 431.138,406.968 C430.898,406.472 428.138,407.344 428.138,407.344 C428.138,407.344 416.05,432.928 387.386,425.6 C358.722,418.272 350.722,400.272 340.722,387.6 C330.722,374.936 175.386,272.928 175.386,272.928 C175.386,272.928 163.306,270.272 137.386,266.272 C105.65,261.376 77.386,238.552 77.386,238.552 z" fill="#F9D6BC"/>
      <path d="M137.386,50.272 C137.386,50.272 204.722,84.272 230.058,84.272 L295.874,84.272 L404.058,107.656 C404.058,107.656 560.434,251.656 573.906,272.296 C587.386,292.936 588.058,316.272 580.058,331.6 C572.058,346.936 556.058,349.6 538.058,344.272 C538.058,344.272 540.722,368.936 526.722,380.272 C512.722,391.6 487.386,382.936 487.386,382.936 C487.386,382.936 489.386,407.6 462.722,416.272 C439.442,423.832 432.746,410.424 431.138,406.968 C430.898,406.472 428.138,407.344 428.138,407.344 C428.138,407.344 416.05,432.928 387.386,425.6 C358.722,418.272 350.722,400.272 340.722,387.6 C330.722,374.936 175.386,272.928 175.386,272.928 C175.386,272.928 163.306,270.272 137.386,266.272 C105.65,261.376 77.386,238.552 77.386,238.552 L137.386,50.272 z" fill-opacity="0" stroke="#65534E" stroke-width="16"/>
      <g>
        <path d="M380.886,348.597 C380.886,348.597 421.198,374.765 430.046,404.941" fill="#F9D6BC"/>
        <path d="M380.886,348.597 C380.886,348.597 421.198,374.765 430.046,404.941" fill-opacity="0" stroke="#65534E" stroke-width="16" stroke-linecap="round"/>
      </g>
      <g>
        <path d="M425.386,318.597 C425.386,318.597 476.89,365.765 487.386,382.941" fill="#F9D6BC"/>
        <path d="M425.386,318.597 C425.386,318.597 476.89,365.765 487.386,382.941" fill-opacity="0" stroke="#65534E" stroke-width="16" stroke-linecap="round"/>
      </g>
      <g>
        <path d="M472.886,278.097 C472.886,278.097 525.718,328.441 538.054,344.265" fill="#F9D6BC"/>
        <path d="M472.886,278.097 C472.886,278.097 525.718,328.441 538.054,344.265" fill-opacity="0" stroke="#65534E" stroke-width="16" stroke-linecap="round"/>
      </g>
      <g>
        <path d="M230.886,293.597 C230.886,293.597 222.382,262.597 197.134,261.597 C171.886,260.597 163.886,283.093 163.382,290.597 C162.886,298.101 163.886,326.101 197.134,339.101" fill="#F9D6BC"/>
        <path d="M230.886,293.597 C230.886,293.597 222.382,262.597 197.134,261.597 C171.886,260.597 163.886,283.093 163.382,290.597 C162.886,298.101 163.886,326.101 197.134,339.101" fill-opacity="0" stroke="#65534E" stroke-width="16"/>
      </g>
      <g>
        <path d="M267.666,323.831 C267.666,323.831 257.882,294.599 230.882,293.599 C203.882,292.599 189.386,324.095 201.386,343.599 C213.386,363.095 238.562,366.439 244.73,366.015" fill="#F9D6BC"/>
        <path d="M267.666,323.831 C267.666,323.831 257.882,294.599 230.882,293.599 C203.882,292.599 189.386,324.095 201.386,343.599 C213.386,363.095 238.562,366.439 244.73,366.015" fill-opacity="0" stroke="#65534E" stroke-width="16"/>
      </g>
      <g>
        <path d="M314.386,359.831 C314.386,359.831 315.89,325.599 293.386,321.599 C270.882,317.599 253.386,328.095 245.386,345.599 C237.386,363.095 253.93,402.583 286.41,397.095" fill="#F9D6BC"/>
        <path d="M314.386,359.831 C314.386,359.831 315.89,325.599 293.386,321.599 C270.882,317.599 253.386,328.095 245.386,345.599 C237.386,363.095 253.93,402.583 286.41,397.095" fill-opacity="0" stroke="#65534E" stroke-width="16"/>
      </g>
      <path d="M376.386,418.597 C376.386,418.597 338.882,430.597 307.386,418.597 C275.882,406.597 281.386,367.597 300.882,362.093 C320.386,356.597 340.882,360.093 345.386,384.093 C349.882,408.093 359.882,411.093 376.386,418.597" fill="#F9D6BC"/>
      <path d="M376.386,418.597 C376.386,418.597 338.882,430.597 307.386,418.597 C275.882,406.597 281.386,367.597 300.882,362.093 C320.386,356.597 340.882,360.093 345.386,384.093 C349.882,408.093 359.882,411.093 376.386,418.597 z" fill-opacity="0" stroke="#65534E" stroke-width="16"/>
      <path d="M666.057,55.601 C666.057,55.601 571.385,87.601 556.713,84.937 C542.057,82.273 469.057,34.657 423.385,28.937 C407.385,26.929 378.713,36.265 353.385,48.929 C328.057,61.601 306.057,58.265 298.057,78.929 C290.057,99.601 278.057,118.273 260.057,133.601 C242.057,148.929 243.385,182.273 272.057,186.273 C300.721,190.273 331.385,161.601 340.057,139.601 C340.057,139.601 385.385,127.713 404.057,107.657 C404.057,107.657 562.713,257.601 571.385,268.265 C580.057,278.929 585.241,293.585 585.001,303.601 C584.825,311.393 614.721,269.601 646.057,255.601 C677.385,241.601 712.721,243.601 712.721,243.601 z" fill="#F9D6BC"/>
      <path d="M666.057,55.601 C666.057,55.601 571.385,87.601 556.713,84.937 C542.057,82.273 469.057,34.657 423.385,28.937 C407.385,26.929 378.713,36.265 353.385,48.929 C328.057,61.601 306.057,58.265 298.057,78.929 C290.057,99.601 278.057,118.273 260.057,133.601 C242.057,148.929 243.385,182.273 272.057,186.273 C300.721,190.273 331.385,161.601 340.057,139.601 C340.057,139.601 385.385,127.713 404.057,107.657 C404.057,107.657 562.713,257.601 571.385,268.265 C580.057,278.929 585.241,293.585 585.001,303.601 C584.825,311.393 614.721,269.601 646.057,255.601 C677.385,241.601 712.721,243.601 712.721,243.601 L666.057,55.601 z" fill-opacity="0" stroke="#65534E" stroke-width="16"/>
      <path d="M188.057,54.265 L214.057,63.601 L129.353,290.097 L100.713,281.601 z" fill="#FEFEFE"/>
      <path d="M188.057,54.265 L214.057,63.601 L129.353,290.097 L100.713,281.601 L188.057,54.265 z" fill-opacity="0" stroke="#65534E" stroke-width="16"/>
      <path d="M186.12,46.718 L98.576,290.094 L15.384,261.566 L106.264,20.934 z" fill="#4D3A33"/>
      <path d="M186.12,46.718 L98.576,290.094 L15.384,261.566 L106.264,20.934 L186.12,46.718 z" fill-opacity="0" stroke="#4D3A33" stroke-width="16"/>
      <g>
        <path d="M340.057,139.601 C340.057,139.601 328.713,130.609 324.713,118.273" fill="#F9D6BC"/>
        <path d="M340.057,139.601 C340.057,139.601 328.713,130.609 324.713,118.273" fill-opacity="0" stroke="#65534E" stroke-width="16" stroke-linecap="round"/>
      </g>
      <g>
        <path d="M404.057,107.655 C404.057,107.655 400.057,86.271 408.057,76.271" fill="#F9D6BC"/>
        <path d="M404.057,107.655 C404.057,107.655 400.057,86.271 408.057,76.271" fill-opacity="0" stroke="#65534E" stroke-width="16" stroke-linecap="round"/>
      </g>
      <g>
        <path d="M500.791,199.53 C500.791,199.53 534.055,190.09 538.055,172.178" fill="#F9D6BC"/>
        <path d="M500.791,199.53 C500.791,199.53 534.055,190.09 538.055,172.178" fill-opacity="0" stroke="#65534E" stroke-width="16" stroke-linecap="round"/>
      </g>
      <path d="M675.869,284.315 L649.637,292.971 L576.981,62.323 L604.773,51.387 z" fill="#FEFEFE"/>
      <path d="M675.869,284.315 L649.637,292.971 L576.981,62.323 L604.773,51.387 L675.869,284.315 z" fill-opacity="0" stroke="#65534E" stroke-width="16"/>
      <path d="M600.721,39.601 L682.057,293.585 L766.057,266.585 L690.057,12.617 z" fill="#4D3A33"/>
      <path d="M600.721,39.601 L682.057,293.585 L766.057,266.585 L690.057,12.617 L600.721,39.601 z" fill-opacity="0" stroke="#4D3A33" stroke-width="16"/>
    </g>
  </g>
</svg>
